<svg width="32" height="32" viewBox="0 0 32 32" fill="none" xmlns="http://www.w3.org/2000/svg">
<g id="ic:outline-shopping-cart">
<path id="Vector" d="M20.7333 17.3337C21.7333 17.3337 22.6133 16.787 23.0667 15.9603L27.84 7.30699C27.9524 7.10489 28.01 6.87695 28.0073 6.64573C28.0045 6.41451 27.9414 6.18802 27.8242 5.98867C27.707 5.78933 27.5398 5.62403 27.3391 5.50915C27.1384 5.39427 26.9112 5.33377 26.68 5.33366H6.94668L5.69334 2.66699H1.33334V5.33366H4.00001L8.80001 15.4537L7.00001 18.707C6.02668 20.4937 7.30668 22.667 9.33334 22.667H25.3333V20.0003H9.33334L10.8 17.3337H20.7333ZM8.21334 8.00033H24.4133L20.7333 14.667H11.3733L8.21334 8.00033ZM9.33334 24.0003C7.86668 24.0003 6.68001 25.2003 6.68001 26.667C6.68001 28.1337 7.86668 29.3337 9.33334 29.3337C10.8 29.3337 12 28.1337 12 26.667C12 25.2003 10.8 24.0003 9.33334 24.0003ZM22.6667 24.0003C21.2 24.0003 20.0133 25.2003 20.0133 26.667C20.0133 28.1337 21.2 29.3337 22.6667 29.3337C24.1333 29.3337 25.3333 28.1337 25.3333 26.667C25.3333 25.2003 24.1333 24.0003 22.6667 24.0003Z" fill="#D5DAD7"/>
</g>
</svg>
