<svg width="36" height="32" viewBox="0 0 36 32" fill="none" xmlns="http://www.w3.org/2000/svg">
<g id="material-symbols:delete-outline-rounded">
<path id="Vector" d="M11.1525 28C10.3514 28 9.66538 27.7387 9.09441 27.216C8.52344 26.6933 8.23843 26.0658 8.23941 25.3333V8C7.82671 8 7.48054 7.872 7.20088 7.616C6.92122 7.36 6.78187 7.04356 6.78284 6.66667C6.78284 6.28889 6.92267 5.972 7.20233 5.716C7.48199 5.46 7.82768 5.33245 8.23941 5.33334H14.0657C14.0657 4.95556 14.2055 4.63867 14.4852 4.38267C14.7648 4.12667 15.1105 3.99912 15.5222 4H21.3485C21.7612 4 22.1074 4.128 22.387 4.384C22.6667 4.64 22.806 4.95645 22.805 5.33334H28.6313C29.044 5.33334 29.3902 5.46134 29.6698 5.71734C29.9495 5.97334 30.0888 6.28978 30.0879 6.66667C30.0879 7.04445 29.948 7.36134 29.6684 7.61734C29.3887 7.87334 29.043 8.00089 28.6313 8V25.3333C28.6313 26.0667 28.3458 26.6947 27.7748 27.2173C27.2039 27.74 26.5183 28.0009 25.7182 28H11.1525ZM11.1525 8V25.3333H25.7182V8H11.1525ZM14.0657 21.3333C14.0657 21.7111 14.2055 22.028 14.4852 22.284C14.7648 22.54 15.1105 22.6676 15.5222 22.6667C15.9349 22.6667 16.2811 22.5387 16.5608 22.2827C16.8404 22.0267 16.9798 21.7102 16.9788 21.3333V12C16.9788 11.6222 16.839 11.3053 16.5593 11.0493C16.2796 10.7933 15.9339 10.6658 15.5222 10.6667C15.1095 10.6667 14.7634 10.7947 14.4837 11.0507C14.204 11.3067 14.0647 11.6231 14.0657 12V21.3333ZM19.8919 21.3333C19.8919 21.7111 20.0317 22.028 20.3114 22.284C20.5911 22.54 20.9368 22.6676 21.3485 22.6667C21.7612 22.6667 22.1074 22.5387 22.387 22.2827C22.6667 22.0267 22.806 21.7102 22.805 21.3333V12C22.805 11.6222 22.6652 11.3053 22.3856 11.0493C22.1059 10.7933 21.7602 10.6658 21.3485 10.6667C20.9358 10.6667 20.5896 10.7947 20.31 11.0507C20.0303 11.3067 19.8909 11.6231 19.8919 12V21.3333Z" fill="white"/>
</g>
</svg>
