<svg width="32" height="32" viewBox="0 0 32 32" fill="none" xmlns="http://www.w3.org/2000/svg">
<g id="material-symbols:share-outline">
<path id="Vector" d="M24 29.3337C22.8889 29.3337 21.9444 28.9448 21.1667 28.167C20.3889 27.3892 20 26.4448 20 25.3337C20 25.1781 20.0111 25.0168 20.0333 24.8497C20.0556 24.6825 20.0889 24.5328 20.1333 24.4003L10.7333 18.9337C10.3556 19.267 9.93333 19.5283 9.46667 19.7177C9 19.907 8.51111 20.0012 8 20.0003C6.88889 20.0003 5.94444 19.6114 5.16667 18.8337C4.38889 18.0559 4 17.1114 4 16.0003C4 14.8892 4.38889 13.9448 5.16667 13.167C5.94444 12.3892 6.88889 12.0003 8 12.0003C8.51111 12.0003 9 12.095 9.46667 12.2843C9.93333 12.4737 10.3556 12.7345 10.7333 13.067L20.1333 7.60033C20.0889 7.46699 20.0556 7.31721 20.0333 7.15099C20.0111 6.98477 20 6.82344 20 6.66699C20 5.55588 20.3889 4.61144 21.1667 3.83366C21.9444 3.05588 22.8889 2.66699 24 2.66699C25.1111 2.66699 26.0556 3.05588 26.8333 3.83366C27.6111 4.61144 28 5.55588 28 6.66699C28 7.7781 27.6111 8.72255 26.8333 9.50033C26.0556 10.2781 25.1111 10.667 24 10.667C23.4889 10.667 23 10.5728 22.5333 10.3843C22.0667 10.1959 21.6444 9.93455 21.2667 9.60033L11.8667 15.067C11.9111 15.2003 11.9444 15.3505 11.9667 15.5177C11.9889 15.6848 12 15.8457 12 16.0003C12 16.1559 11.9889 16.3172 11.9667 16.4843C11.9444 16.6514 11.9111 16.8012 11.8667 16.9337L21.2667 22.4003C21.6444 22.067 22.0667 21.8061 22.5333 21.6177C23 21.4292 23.4889 21.3345 24 21.3337C25.1111 21.3337 26.0556 21.7225 26.8333 22.5003C27.6111 23.2781 28 24.2225 28 25.3337C28 26.4448 27.6111 27.3892 26.8333 28.167C26.0556 28.9448 25.1111 29.3337 24 29.3337ZM24 8.00033C24.3778 8.00033 24.6947 7.87233 24.9507 7.61633C25.2067 7.36033 25.3342 7.04388 25.3333 6.66699C25.3333 6.28921 25.2053 5.97233 24.9493 5.71633C24.6933 5.46033 24.3769 5.33277 24 5.33366C23.6222 5.33366 23.3053 5.46166 23.0493 5.71766C22.7933 5.97366 22.6658 6.2901 22.6667 6.66699C22.6667 7.04477 22.7947 7.36166 23.0507 7.61766C23.3067 7.87366 23.6231 8.00121 24 8.00033ZM8 17.3337C8.37778 17.3337 8.69467 17.2057 8.95067 16.9497C9.20667 16.6937 9.33422 16.3772 9.33333 16.0003C9.33333 15.6225 9.20533 15.3057 8.94933 15.0497C8.69333 14.7937 8.37689 14.6661 8 14.667C7.62222 14.667 7.30533 14.795 7.04933 15.051C6.79333 15.307 6.66578 15.6234 6.66667 16.0003C6.66667 16.3781 6.79467 16.695 7.05067 16.951C7.30667 17.207 7.62311 17.3345 8 17.3337ZM24 26.667C24.3778 26.667 24.6947 26.539 24.9507 26.283C25.2067 26.027 25.3342 25.7105 25.3333 25.3337C25.3333 24.9559 25.2053 24.639 24.9493 24.383C24.6933 24.127 24.3769 23.9994 24 24.0003C23.6222 24.0003 23.3053 24.1283 23.0493 24.3843C22.7933 24.6403 22.6658 24.9568 22.6667 25.3337C22.6667 25.7114 22.7947 26.0283 23.0507 26.2843C23.3067 26.5403 23.6231 26.6679 24 26.667Z" fill="#5CC379"/>
</g>
</svg>
