<svg width="32" height="32" viewBox="0 0 32 32" fill="none" xmlns="http://www.w3.org/2000/svg">
<g id="mdi:cards-heart-outline">
<path id="Vector" d="M16.1333 24.7333L16 24.8667L15.8533 24.7333C9.51996 18.9867 5.33329 15.1867 5.33329 11.3333C5.33329 8.66667 7.33329 6.66667 9.99996 6.66667C12.0533 6.66667 14.0533 8 14.76 9.81333H17.24C17.9466 8 19.9466 6.66667 22 6.66667C24.6666 6.66667 26.6666 8.66667 26.6666 11.3333C26.6666 15.1867 22.48 18.9867 16.1333 24.7333ZM22 4C19.68 4 17.4533 5.08 16 6.77333C14.5466 5.08 12.32 4 9.99996 4C5.89329 4 2.66663 7.21333 2.66663 11.3333C2.66663 16.36 7.19996 20.48 14.0666 26.7067L16 28.4667L17.9333 26.7067C24.8 20.48 29.3333 16.36 29.3333 11.3333C29.3333 7.21333 26.1066 4 22 4Z" fill="#5CC379"/>
</g>
</svg>
