<svg width="32" height="32" viewBox="0 0 32 32" fill="none" xmlns="http://www.w3.org/2000/svg">
<g id="mdi:user-outline">
<path id="Vector" d="M15.9999 5.33301C17.4144 5.33301 18.771 5.89491 19.7712 6.8951C20.7713 7.8953 21.3333 9.25185 21.3333 10.6663C21.3333 12.0808 20.7713 13.4374 19.7712 14.4376C18.771 15.4378 17.4144 15.9997 15.9999 15.9997C14.5854 15.9997 13.2289 15.4378 12.2287 14.4376C11.2285 13.4374 10.6666 12.0808 10.6666 10.6663C10.6666 9.25185 11.2285 7.8953 12.2287 6.8951C13.2289 5.89491 14.5854 5.33301 15.9999 5.33301ZM15.9999 7.99967C15.2927 7.99967 14.6144 8.28063 14.1143 8.78072C13.6142 9.28082 13.3333 9.9591 13.3333 10.6663C13.3333 11.3736 13.6142 12.0519 14.1143 12.552C14.6144 13.0521 15.2927 13.333 15.9999 13.333C16.7072 13.333 17.3854 13.0521 17.8855 12.552C18.3856 12.0519 18.6666 11.3736 18.6666 10.6663C18.6666 9.9591 18.3856 9.28082 17.8855 8.78072C17.3854 8.28063 16.7072 7.99967 15.9999 7.99967ZM15.9999 17.333C19.5599 17.333 26.6666 19.1063 26.6666 22.6663V26.6663H5.33325V22.6663C5.33325 19.1063 12.4399 17.333 15.9999 17.333ZM15.9999 19.8663C12.0399 19.8663 7.86659 21.813 7.86659 22.6663V24.133H24.1333V22.6663C24.1333 21.813 19.9599 19.8663 15.9999 19.8663Z" fill="#D5DAD7"/>
</g>
</svg>
